#!OML:ASF F:\twosubjects\two\wednesday\Session 1\rory1.ASF
:FULLY-SPECIFIED
:DEGREES
164
root -1.78837 15.6607 -18.8377 -181.235 41.6676 166.194
lowerback 12.097 1.86593 -6.29214
upperback 4.03434 2.15055 -5.77259
thorax -2.51367 1.334 -2.81635
lowerneck -6.44901 -11.5026 -11.5605
upperneck -5.29731 -14.2854 20.1249
head 1.93446 -6.70429 7.23251
rclavicle -3.47873e-014 2.98177e-014
rhumerus -35.66 50.1006 -56.2761
rradius 82.14
rwrist -46.5102
rhand -16.1309 24.8809
rfingers 7.12502
rthumb 10.0739 -4.85796
lclavicle -3.47873e-014 2.98177e-014
lhumerus -35.529 6.56173 35.0026
lradius 27.6557
lwrist 14.3397
lhand -21.5822 24.0841
lfingers 7.12502
lthumb 4.81217 54.0095
rfemur -9.33245 6.50121 26.6164
rtibia 71.5782
rfoot 6.35864 11.6122
rtoes 14.1613
lfemur -50.8952 -10.5688 -12.1722
ltibia 48.7995
lfoot -5.50716 -13.4534
ltoes -26.6319
165
root -1.67463 15.6295 -19.0219 -182.33 43.177 165.742
lowerback 12.2421 1.84732 -6.47897
upperback 4.13466 2.10858 -5.88099
thorax -2.487 1.31851 -2.82483
lowerneck -2.77385 -10.9471 -12.4645
upperneck -9.17817 -13.149 22.1264
head 0.294632 -6.41109 8.43019
rclavicle 1.35174e-014 -1.19271e-014
rhumerus -34.8872 51.1424 -55.7462
rradius 82.7928
rwrist -46.8146
rhand -16.4991 24.3798
rfingers 7.12502
rthumb 9.7186 -5.37597
lclavicle 1.35174e-014 -1.19271e-014
lhumerus -35.128 5.10449 35.3752
lradius 28.0684
lwrist 14.9269
lhand -23.8397 21.1715
lfingers 7.12502
lthumb 2.63219 51.135
rfemur -11.551 6.80152 26.0164
rtibia 76.9976
rfoot 2.85561 11.9083
rtoes 8.59635
lfemur -49.7225 -10.1525 -12.6061
ltibia 50.2923
lfoot -6.40358 -13.5173
ltoes -20.2125
166
root -1.56273 15.6039 -19.1942 -184.126 44.7688 164.645
lowerback 12.718 2.01023 -7.11119
upperback 4.25871 2.23445 -6.00407
thorax -2.62528 1.39468 -2.64276
lowerneck -4.43071 -11.0654 -11.7474
upperneck -7.46438 -13.5111 20.5804
head 0.918398 -6.48139 7.65175
rclavicle 1.05356e-014 5.68524e-014
rhumerus -34.2141 52.2497 -54.8657
rradius 83.5787
rwrist -46.7474
rhand -16.8101 24.2737
rfingers 7.12502
rthumb 9.41859 -5.49588
lclavicle 1.05356e-014 5.68524e-014
lhumerus -34.4272 4.21477 35.6568
lradius 28.2344
lwrist 14.7439
lhand -23.8473 21.1912
lfingers 7.12502
lthumb 2.6248 51.1548
rfemur -13.6793 7.03272 25.0106
rtibia 82.3858
rfoot 0.080058 12.2464
rtoes -0.0722444
lfemur -48.1715 -9.61384 -13.5798
ltibia 51.5898
lfoot -8.03401 -12.1892
ltoes -20.7122
167
root -1.44503 15.5993 -19.3586 -186.644 46.342 162.826
lowerback 13.5 2.26168 -8.03894
upperback 4.3569 2.41368 -6.32922
thorax -2.95549 1.51454 -2.54232
lowerneck -4.70424 -11.2212 -11.8389
upperneck -7.11918 -13.7658 20.4782
head 1.09885 -6.58825 7.58444
rclavicle -1.63202e-013 6.55989e-014
rhumerus -33.6328 53.066 -54.1988
rradius 84.0819
rwrist -46.1668
rhand -16.5223 24.0937
rfingers 7.12502
rthumb 9.69626 -5.66307
lclavicle -1.63202e-013 6.55989e-014
lhumerus -33.5126 3.48558 35.6676
lradius 28.3244
lwrist 13.967
lhand -23.0224 22.7157
lfingers 7.12502
lthumb 3.42149 52.668
rfemur -15.792 7.08748 23.4205
rtibia 87.6248
rfoot -0.656386 10.6549
rtoes -8.57641
lfemur -46.1972 -9.09682 -15.0438
ltibia 52.5714
lfoot -9.85683 -11.5751
ltoes -23.0582
168
root -1.32158 15.6095 -19.5177 -189.192 47.9065 161.079
lowerback 13.8375 2.33336 -9.39026
upperback 4.72866 2.37732 -6.34131
thorax -2.77303 1.50669 -1.81017
lowerneck -4.97505 -11.1051 -12.0748
upperneck -7.09716 -13.5804 20.5266
head 1.14225 -6.4789 7.63914
rclavicle 6.69904e-014 -1.86858e-014
rhumerus -30.9947 54.2855 -52.0779
rradius 84.096
rwrist -45.5776
rhand -15.8017 23.92
rfingers 7.12502
rthumb 10.3915 -5.80326
lclavicle 6.69904e-014 -1.86858e-014
lhumerus -32.9502 3.81322 35.4426
lradius 28.2409
lwrist 13.1099
lhand -23.3028 23.3701
lfingers 7.12502
lthumb 3.15066 53.3266
rfemur -17.9604 7.01622 21.9296
rtibia 92.5885
rfoot -1.05473 9.63682
rtoes -1.04773
lfemur -43.9837 -8.55474 -16.3458
ltibia 53.1946
lfoot -11.7288 -11.1035
ltoes -24.6247
169
root -1.19661 15.6326 -19.6712 -191.868 49.4051 159.118
lowerback 14.4471 2.4991 -10.5215
upperback 4.82605 2.40392 -6.53679
thorax -3.01361 1.54405 -1.4352
lowerneck -5.50604 -11.0305 -11.5531
upperneck -6.38563 -13.5703 19.9085
head 1.33598 -6.44773 7.31872
rclavicle -7.31528e-014 8.66701e-014
rhumerus -29.17 55.3602 -50.6305
rradius 84.4552
rwrist -45.0571
rhand -15.0269 23.4389
rfingers 7.12502
rthumb 11.1388 -6.24542
lclavicle -7.31528e-014 8.66701e-014
lhumerus -32.1099 3.92798 34.945
lradius 27.897
lwrist 12.1269
lhand -24.364 22.3574
lfingers 7.12502
lthumb 2.12586 52.3266
rfemur -20.2539 6.68305 20.2746
rtibia 97.3165
rfoot -2.09026 9.27987
rtoes -1.43597
lfemur -41.673 -7.96641 -17.7205
ltibia 53.4474
lfoot -13.559 -10.0657
ltoes -27.0634
170
root -1.07916 15.6497 -19.8172 -194.454 50.6989 157.121
lowerback 14.8279 2.5523 -11.3972
upperback 4.95935 2.35193 -6.86681
thorax -3.07181 1.54302 -1.31913
lowerneck -6.07195 -11.0585 -10.6436
upperneck -5.73243 -13.7037 19.2716
head 1.51219 -6.49082 6.92103
rclavicle 6.75868e-014 -5.88403e-014
rhumerus -27.2707 56.1289 -49.1939
rradius 85.1332
rwrist -44.1741
rhand -14.0318 22.7006
rfingers 7.12502
rthumb 12.0984 -6.92967
lclavicle 6.75868e-014 -5.88403e-014
lhumerus -31.0024 4.31666 34.2517
lradius 27.4373
lwrist 10.9799
lhand -25.8136 21.2512
lfingers 7.12502
lthumb 0.725749 51.2297
rfemur -22.7368 6.02906 18.535
rtibia 101.894
rfoot -3.477 9.00598
rtoes -0.20048
lfemur -39.5274 -7.26088 -19.0648
ltibia 53.385
lfoot -14.8514 -9.13284
ltoes -30.1811
171
root -0.955359 15.6759 -19.9582 -196.522 51.8752 155.472
lowerback 15.0952 2.5641 -11.731
upperback 4.8754 2.2803 -7.24745
thorax -3.2896 1.53333 -1.55286
lowerneck -5.84083 -11.0307 -10.3156
upperneck -5.45544 -13.7472 19.1517
head 1.52558 -6.52962 6.83401
rclavicle 2.92213e-014 1.27222e-014
rhumerus -26.1237 56.4791 -48.5733
rradius 85.4978
rwrist -42.8893
rhand -12.5765 22.1955
rfingers 7.12502
rthumb 13.5014 -7.34686
lclavicle 2.92213e-014 1.27222e-014
lhumerus -29.8146 4.28591 33.572
lradius 27.1789
lwrist 10.3328
lhand -26.5802 21.2632
lfingers 7.12502
lthumb -0.0146706 51.2429
rfemur -25.378 5.27968 16.9889
rtibia 106.138
rfoot -4.43809 8.95963
rtoes 9.10758
lfemur -37.6415 -6.53125 -20.0791
ltibia 53.019
lfoot -15.4946 -8.63849
ltoes -31.0226
172
root -0.819798 15.7293 -20.1019 -198.564 52.8722 153.893
lowerback 15.4099 3.35674 -11.8078
upperback 5.05362 3.26937 -6.81022
thorax -3.35272 2.00362 -1.24447
lowerneck -5.4597 -11.7702 -12.9905
upperneck -5.45465 -14.7325 19.806
head 1.87029 -7.0129 7.36529
rclavicle 3.12092e-014 -3.49861e-014
rhumerus -26.698 55.3292 -47.0034
rradius 86.006
rwrist -42.0051
rhand -10.5819 22.0187
rfingers 7.12502
rthumb 15.4232 -7.3859
lclavicle 3.12092e-014 -3.49861e-014
lhumerus -27.0361 4.58918 35.2818
lradius 26.6437
lwrist 9.39732
lhand -26.3934 21.6336
lfingers 7.12502
lthumb 0.165779 51.6133
rfemur -28.1638 3.86218 15.5693
rtibia 109.954
rfoot -5.66865 8.6844
rtoes 13.2473
lfemur -35.6393 -5.98681 -21.0732
ltibia 52.3995
lfoot -16.0271 -8.93429
ltoes -22.9372
173
root -0.692808 15.7921 -20.2407 -200.192 53.5534 152.844
lowerback 15.8892 2.70732 -12.5883
upperback 4.65752 2.14956 -7.14553
thorax -3.96688 1.4911 -1.00943
lowerneck -4.98889 -10.868 -11.6619
upperneck -4.97534 -13.6459 19.3679
head 1.62335 -6.51575 7.1512
rclavicle -2.98177e-014 2.5842e-014
rhumerus -24.0065 56.8249 -46.4972
rradius 86.2863
rwrist -41.3538
rhand -8.31847 21.9231
rfingers 7.12502
rthumb 17.6024 -7.3001
lclavicle -2.98177e-014 2.5842e-014
lhumerus -27.6974 5.48227 33.2867
lradius 26.8342
lwrist 9.16802
lhand -26.1829 22.5621
lfingers 7.12502
lthumb 0.369121 52.5416
rfemur -30.5938 1.87846 14.4595
rtibia 113.305
rfoot -6.86905 8.26449
rtoes 4.04183
lfemur -33.6577 -5.76429 -21.7999
ltibia 51.7144
lfoot -16.7218 -8.92693
ltoes -16.2591
174
root -0.565113 15.8555 -20.3644 -200.986 54.2491 152.572
lowerback 16.1824 2.27044 -12.7997
upperback 4.43865 1.43473 -7.18065
thorax -4.31287 1.15333 -0.810624
lowerneck -4.69442 -10.5526 -10.974
upperneck -4.80077 -13.2794 19.3595
head 1.5208 -6.35495 7.08649
rclavicle -2.38542e-015 5.08889e-014
rhumerus -21.9049 57.6901 -45.6286
rradius 86.559
rwrist -40.4257
rhand -6.72985 22.2717
rfingers 7.12502
rthumb 19.1306 -6.80741
lclavicle -2.38542e-015 5.08889e-014
lhumerus -27.4717 6.91688 32.0012
lradius 26.9165
lwrist 8.37416
lhand -26.1743 23.2547
lfingers 7.12502
lthumb 0.377404 53.2341
rfemur -33.652 -0.0254315 14.0155
rtibia 116.608
rfoot -6.94693 9.44415
rtoes 3.01798
lfemur -31.9089 -5.66971 -21.9167
ltibia 51.0603
lfoot -16.9372 -8.37262
ltoes -17.9376
